<?xml version="1.0" encoding="UTF-8"?>
<!DOCTYPE svg PUBLIC "-//W3C//DTD SVG 1.1//EN" "http://www.w3.org/Graphics/SVG/1.1/DTD/svg11.dtd">
<!-- Creator: CorelDRAW X7 -->
<svg xmlns="http://www.w3.org/2000/svg" xml:space="preserve" width="129.04mm" height="100.33mm" version="1.1" style="shape-rendering:geometricPrecision; text-rendering:geometricPrecision; image-rendering:optimizeQuality; fill-rule:evenodd; clip-rule:evenodd"
viewBox="0 0 12904 10033"
 xmlns:xlink="http://www.w3.org/1999/xlink">
 <defs>
  <style type="text/css">
   <![CDATA[
    .fil2 {fill:#C5C6C6}
    .fil0 {fill:#B2B3B3}
    .fil1 {fill:#9D9E9E}
   ]]>
  </style>
 </defs>
 <g id="Capa_x0020_1">
  <metadata id="CorelCorpID_0Corel-Layer"/>
  <g id="_1961598526512">
   <path class="fil0" d="M8593 3397l749 3c0,-258 -24,-481 83,-647 95,-146 252,-257 458,-262 207,-5 369,111 457,258 113,189 79,369 79,650l749 -1c0,-440 10,-815 -287,-1167 -558,-661 -1499,-611 -1987,-10 -257,316 -301,619 -301,1176z"/>
   <path class="fil1" d="M9857 4324c277,0 328,181 328,374 0,150 -129,159 -158,263 -25,88 44,394 -30,414 -234,-3 -287,29 -280,-279 6,-291 -31,-149 -117,-305 -113,-203 42,-467 257,-467zm1311 -934l-749 0 -1077 2 -749 -4c-604,-12 -539,66 -539,748 0,226 -28,1775 25,1919 68,186 243,165 490,165l2599 0c615,0 539,-42 539,-773 0,-429 0,-858 0,-1287 0,-621 112,-802 -539,-770z"/>
   <path class="fil0" d="M141 9053l1686 0c114,0 70,-171 70,-468 0,-54 -16,-71 -70,-71l-1100 0 0 -491 1030 0 0 -492 -1030 0 0 -445 1100 0 0 -515 -1686 0 0 2482z"/>
   <path class="fil0" d="M10396 8608c-616,0 -562,-866 -24,-866 543,0 513,866 24,866zm-445 -1100l0 -188 -562 0 0 2599 585 0 0 -1030c107,71 142,171 402,208 569,80 956,-375 956,-817 0,-332 -45,-621 -347,-847 -230,-172 -559,-215 -801,-90 -108,55 -147,107 -233,165z"/>
   <path class="fil0" d="M7680 9381l-234 -24c0,141 -42,271 -54,420 -7,78 -41,119 311,119 645,0 752,-525 964,-1097 44,-121 98,-235 145,-370 49,-137 89,-235 142,-373 51,-135 96,-232 145,-370 27,-76 44,-113 73,-185 28,-71 48,-144 76,-204l-632 0c-10,121 -233,788 -288,976 -32,110 11,70 -63,124l-374 -1100 -633 0c9,100 570,1359 685,1636 37,90 44,84 -38,275 -37,86 -114,173 -225,173z"/>
   <path class="fil0" d="M2763 4792c386,0 306,111 398,304l-725 0c4,-179 144,-304 327,-304zm-889 421c0,317 1,537 298,802 279,248 768,296 1137,118 69,-33 127,-82 181,-123 75,-56 89,-89 140,-165 -177,-93 -318,-223 -445,-234 -63,235 -717,243 -749,-140l1264 0c0,-350 -38,-580 -230,-824 -217,-275 -634,-331 -1026,-198 -302,102 -570,427 -570,764z"/>
   <path class="fil0" d="M2787 7531l0 -234 -562 0 0 1756 585 0 0 -937c0,-435 562,-533 562,-93l0 1030 585 0 0 -1007c0,-358 -120,-639 -383,-741 -325,-126 -577,-15 -787,226z"/>
   <polygon class="fil0" points="141,6173 1710,6173 1710,5658 750,5658 750,3691 141,3691 "/>
   <path class="fil0" d="M5760 4956c0,540 684,497 815,615 80,72 87,228 -206,228 -165,0 -293,-117 -398,-188 -75,112 -232,243 -305,351 54,36 64,60 118,93 41,26 102,55 155,80 284,136 895,144 1123,-158 119,-157 158,-410 48,-592 -204,-335 -1011,-293 -778,-534 160,-165 469,49 552,105 77,-115 268,-217 304,-351 -84,-23 -50,-26 -118,-69 -427,-270 -1310,-181 -1310,420z"/>
   <path class="fil0" d="M4168 8093l0 117c0,512 423,890 937,890 250,0 554,-49 679,-235 -86,-127 -211,-241 -281,-374 -116,31 -154,117 -328,117 -532,0 -603,-866 23,-866 124,0 161,89 281,117 34,-129 250,-258 328,-375 -96,-64 -44,-64 -226,-149 -567,-266 -1413,64 -1413,758z"/>
   <path class="fil0" d="M4028 4441l-281 0c0,526 -72,444 304,444 0,363 -63,972 122,1166 217,230 559,187 838,122l0 -421c-480,70 -398,-24 -398,-867l398 0 0 -444 -398 0 0 -469 -585 0 0 469z"/>
   <path class="fil0" d="M11683 7297l-281 0 0 445 281 0c0,436 -73,980 157,1201 272,261 654,113 803,110l0 -445c-493,115 -398,-143 -398,-866l422 0 0 -445 -422 0 0 -468 -562 0 0 468z"/>
   <path class="fil0" d="M6556 7508l0 -211c-337,0 -585,-52 -585,70l0 1616c0,123 265,70 609,70l0 -913c0,-277 236,-422 538,-351l23 -539c-188,0 -355,14 -497,159 -60,61 -20,49 -88,99z"/>
   <path class="fil2" d="M11543 2802c0,160 55,257 257,257l726 0c278,0 384,-468 -94,-468 -366,0 -889,-81 -889,211z"/>
   <path class="fil2" d="M9646 414l0 632c0,414 469,348 469,70l0 -772c0,-194 -257,-323 -403,-146 -38,46 -66,135 -66,216z"/>
   <path class="fil2" d="M11004 1631c0,111 115,234 234,234 112,0 530,-368 651,-473 118,-102 169,-82 169,-276 0,-117 -115,-211 -211,-211 -158,0 -544,379 -682,489 -63,49 -161,135 -161,237z"/>
   <path class="fil2" d="M7001 2825c0,127 108,234 234,234l749 0c301,0 336,-468 -47,-468 -392,0 -936,-85 -936,234z"/>
   <path class="fil2" d="M7703 1140c0,168 456,484 582,588 74,60 141,137 261,137 117,0 374,-228 68,-465l-425 -348c-371,-334 -486,21 -486,88z"/>
   <path class="fil0" d="M5549 4230c-71,136 -113,172 -281,211l0 281c724,-61 788,-1077 281,-1077 -377,0 -468,574 0,585z"/>
  </g>
 </g>
</svg>
