<?xml version="1.0" encoding="UTF-8"?>
<!DOCTYPE svg PUBLIC "-//W3C//DTD SVG 1.1//EN" "http://www.w3.org/Graphics/SVG/1.1/DTD/svg11.dtd">
<!-- Creator: CorelDRAW X7 -->
<svg xmlns="http://www.w3.org/2000/svg" xml:space="preserve" width="210mm" height="297mm" version="1.1" style="shape-rendering:geometricPrecision; text-rendering:geometricPrecision; image-rendering:optimizeQuality; fill-rule:evenodd; clip-rule:evenodd"
viewBox="0 0 21000 29700"
 xmlns:xlink="http://www.w3.org/1999/xlink">
 <defs>
  <style type="text/css">
   <![CDATA[
    .fil2 {fill:#C5C6C6}
    .fil0 {fill:#B2B3B3}
    .fil1 {fill:#9D9E9E}
   ]]>
  </style>
 </defs>
 <g id="Capa_x0020_1">
  <metadata id="CorelCorpID_0Corel-Layer"/>
  <g id="_1962285066800">
   <path class="fil0" d="M12822 15611l749 3c0,-257 -24,-481 83,-647 95,-146 252,-257 459,-262 206,-4 368,111 456,258 114,190 79,369 79,650l749 0c0,-441 10,-815 -287,-1167 -558,-661 -1499,-611 -1987,-11 -257,316 -301,619 -301,1176z"/>
   <path class="fil1" d="M14086 16538c277,0 328,182 328,375 0,149 -129,158 -158,263 -24,87 44,393 -30,413 -234,-3 -287,29 -280,-279 6,-291 -31,-148 -117,-304 -112,-203 42,-468 257,-468zm1311 -934l-749 1 -1077 1 -749 -3c-604,-13 -538,65 -538,748 0,226 -29,1774 24,1918 68,186 243,166 491,165l2598 0c615,0 539,-41 539,-772 0,-430 0,-859 0,-1288 0,-621 112,-802 -539,-770z"/>
   <path class="fil0" d="M4371 21267l1685 0c114,0 70,-170 70,-468 0,-54 -16,-70 -70,-70l-1100 0 0 -492 1030 0 0 -492 -1030 0 0 -444 1100 0 0 -516 -1685 0 0 2482z"/>
   <path class="fil0" d="M14625 20822c-616,0 -562,-866 -24,-866 543,0 513,866 24,866zm-445 -1100l0 -187 -562 0 0 2598 585 0 0 -1030c107,72 143,172 402,209 569,80 956,-376 956,-817 0,-333 -45,-622 -347,-848 -230,-172 -559,-215 -801,-90 -108,56 -147,107 -233,165z"/>
   <path class="fil0" d="M11909 21595l-234 -24c0,141 -42,271 -54,420 -7,79 -41,119 312,119 644,0 752,-525 963,-1097 44,-120 98,-235 146,-369 48,-137 89,-235 141,-374 51,-134 96,-231 145,-370 28,-76 44,-112 73,-185 28,-71 48,-144 77,-204l-632 0c-11,122 -234,789 -289,976 -32,110 12,70 -63,125l-374 -1101 -632 0c8,100 569,1359 684,1636 37,90 44,84 -38,275 -36,86 -113,173 -225,173z"/>
   <path class="fil0" d="M6993 17006c385,0 305,111 398,305l-726 0c4,-180 144,-305 328,-305zm-890 422c0,316 1,536 298,802 279,248 769,295 1137,117 69,-33 127,-82 181,-123 75,-56 89,-88 140,-164 -177,-94 -318,-224 -445,-234 -63,235 -717,242 -749,-141l1264 0c0,-349 -38,-580 -230,-824 -216,-275 -634,-330 -1026,-198 -302,102 -570,428 -570,765z"/>
   <path class="fil0" d="M7016 19745l0 -234 -562 0 0 1756 585 0 0 -936c0,-436 562,-533 562,-94l0 1030 586 0 0 -1007c0,-357 -120,-639 -383,-740 -325,-126 -578,-16 -788,225z"/>
   <polygon class="fil0" points="4371,18387 5939,18387 5939,17872 4979,17872 4979,15906 4371,15906 "/>
   <path class="fil0" d="M9989 17170c0,540 684,498 815,615 80,73 88,228 -206,228 -165,0 -293,-117 -398,-187 -75,112 -232,243 -304,351 53,36 63,59 117,93 41,26 103,54 155,79 285,136 895,145 1124,-158 118,-157 157,-410 47,-591 -204,-335 -1011,-294 -778,-534 160,-165 469,48 552,104 77,-115 269,-216 304,-351 -84,-23 -49,-26 -118,-69 -427,-270 -1310,-181 -1310,420z"/>
   <path class="fil0" d="M8397 20307l0 117c0,512 423,890 937,890 250,0 554,-48 679,-234 -85,-127 -211,-242 -281,-375 -116,31 -153,117 -328,117 -532,0 -603,-866 23,-866 124,0 161,89 281,117 35,-128 250,-258 328,-374 -96,-65 -44,-65 -225,-150 -568,-266 -1414,64 -1414,758z"/>
   <path class="fil0" d="M8257 16655l-281 0c0,527 -72,445 304,445 0,362 -62,972 122,1166 218,229 559,186 838,121l0 -421c-480,71 -398,-23 -398,-866l398 0 0 -445 -398 0 0 -468 -585 0 0 468z"/>
   <path class="fil0" d="M15913 19511l-281 0 0 445 281 0c0,436 -73,980 156,1201 272,262 654,113 803,110l0 -445c-493,115 -398,-142 -398,-866l422 0 0 -445 -422 0 0 -468 -561 0 0 468z"/>
   <path class="fil0" d="M10785 19722l0 -211c-337,0 -585,-52 -585,70l0 1616c0,124 265,70 609,70l0 -913c0,-277 236,-422 538,-351l24 -539c-188,0 -356,15 -497,159 -61,62 -20,49 -89,99z"/>
   <path class="fil2" d="M15772 15016c0,160 56,258 258,258l725 0c278,0 385,-469 -93,-469 -367,0 -890,-81 -890,211z"/>
   <path class="fil2" d="M13876 12628l0 632c0,415 468,349 468,71l0 -773c0,-193 -256,-323 -403,-146 -38,46 -65,136 -65,216z"/>
   <path class="fil2" d="M15234 13846c0,111 114,234 234,234 112,0 529,-369 650,-474 118,-102 169,-82 169,-275 0,-117 -114,-211 -211,-211 -158,0 -544,378 -682,488 -63,49 -160,136 -160,238z"/>
   <path class="fil2" d="M11230 15040c0,127 108,234 234,234l749 0c302,0 337,-469 -46,-469 -392,0 -937,-84 -937,235z"/>
   <path class="fil2" d="M11933 13354c0,169 455,485 581,589 74,60 142,137 261,137 117,0 374,-228 68,-466l-425 -348c-371,-334 -485,22 -485,88z"/>
   <path class="fil0" d="M9779 16444c-72,136 -114,172 -281,211l0 281c723,-60 787,-1077 281,-1077 -378,0 -469,575 0,585z"/>
  </g>
 </g>
</svg>
